<svg width="260" height="120" viewBox="0 0 260 120" xmlns="http://www.w3.org/2000/svg" font-family="Arial" font-size="13">
  <text x="50" y="65" text-anchor="middle" font-size="15" font-weight="bold">C</text>
  <text x="148" y="65" text-anchor="middle" font-size="15" font-weight="bold">C</text>
  <text x="220" y="65" text-anchor="middle" font-size="14" font-weight="bold" fill="#1a5276">O</text>
  <!-- enlaces -->
  <line x1="60" y1="60" x2="138" y2="60" stroke="#333" stroke-width="2"/>
  <line x1="158" y1="60" x2="208" y2="60" stroke="#1a5276" stroke-width="2"/>
  <line x1="232" y1="60" x2="252" y2="60" stroke="#1a5276" stroke-width="2"/>
  <text x="258" y="64" text-anchor="middle" font-size="13" font-weight="bold" fill="#1a5276">H</text>
  <!-- H C1 -->
  <line x1="50" y1="50" x2="50" y2="22" stroke="#333" stroke-width="2"/><text x="50" y="15" text-anchor="middle" font-weight="bold">H</text>
  <line x1="38" y1="60" x2="10" y2="60" stroke="#333" stroke-width="2"/><text x="4" y="64" text-anchor="middle" font-weight="bold">H</text>
  <line x1="50" y1="70" x2="50" y2="98" stroke="#333" stroke-width="2"/><text x="50" y="111" text-anchor="middle" font-weight="bold">H</text>
  <!-- H C2 -->
  <line x1="148" y1="50" x2="148" y2="22" stroke="#333" stroke-width="2"/><text x="148" y="15" text-anchor="middle" font-weight="bold">H</text>
  <line x1="148" y1="70" x2="148" y2="98" stroke="#333" stroke-width="2"/><text x="148" y="111" text-anchor="middle" font-weight="bold">H</text>
  <!-- etiqueta grupo funcional -->
  <rect x="195" y="35" width="60" height="14" rx="3" fill="#d4e8f8" stroke="#1a5276" stroke-width="1"/>
  <text x="225" y="46" text-anchor="middle" font-size="10" fill="#1a5276">grupo -OH</text>
  <text x="130" y="118" text-anchor="middle" font-size="11" fill="#555">Etanol (CH₃CH₂OH)</text>
</svg>