<svg width="340" height="160" viewBox="0 0 340 160" xmlns="http://www.w3.org/2000/svg" font-family="Arial" font-size="12">
  <!-- ALDEHÍDO -->
  <text x="75" y="20" text-anchor="middle" font-size="13" font-weight="bold">Aldehído</text>
  <text x="30" y="75" text-anchor="middle" font-style="italic" font-size="14">R</text>
  <line x1="40" y1="70" x2="65" y2="70" stroke="#333" stroke-width="2"/>
  <text x="78" y="75" text-anchor="middle" font-size="14" font-weight="bold">C</text>
  <line x1="74" y1="58" x2="74" y2="35" stroke="#c0392b" stroke-width="2"/>
  <line x1="78" y1="58" x2="78" y2="35" stroke="#c0392b" stroke-width="2"/>
  <text x="76" y="28" text-anchor="middle" font-size="13" font-weight="bold" fill="#c0392b">O</text>
  <line x1="88" y1="70" x2="115" y2="70" stroke="#333" stroke-width="2"/>
  <text x="122" y="74" text-anchor="middle" font-size="13" font-weight="bold">H</text>
  <text x="75" y="115" text-anchor="middle" font-size="10" fill="#555">C=O terminal (con H)</text>
  <!-- línea divisoria -->
  <line x1="170" y1="15" x2="170" y2="145" stroke="#aaa" stroke-width="1.5" stroke-dasharray="5,3"/>
  <!-- CETONA -->
  <text x="260" y="20" text-anchor="middle" font-size="13" font-weight="bold">Cetona</text>
  <text x="195" y="75" text-anchor="middle" font-style="italic" font-size="14">R</text>
  <line x1="205" y1="70" x2="230" y2="70" stroke="#333" stroke-width="2"/>
  <text x="243" y="75" text-anchor="middle" font-size="14" font-weight="bold">C</text>
  <line x1="239" y1="58" x2="239" y2="35" stroke="#c0392b" stroke-width="2"/>
  <line x1="243" y1="58" x2="243" y2="35" stroke="#c0392b" stroke-width="2"/>
  <text x="241" y="28" text-anchor="middle" font-size="13" font-weight="bold" fill="#c0392b">O</text>
  <line x1="253" y1="70" x2="290" y2="70" stroke="#333" stroke-width="2"/>
  <text x="303" y="74" text-anchor="middle" font-style="italic" font-size="14">R'</text>
  <text x="255" y="115" text-anchor="middle" font-size="10" fill="#555">C=O interno (entre 2 C)</text>
</svg>