<svg width="380" height="165" viewBox="0 0 380 165" xmlns="http://www.w3.org/2000/svg" font-family="Arial" font-size="13">
  <!-- C1-C2-C3-C4-C5 -->
  <text x="30"  y="90" text-anchor="middle" font-size="15" font-weight="bold">C</text>
  <text x="100" y="90" text-anchor="middle" font-size="15" font-weight="bold">C</text>
  <text x="185" y="90" text-anchor="middle" font-size="15" font-weight="bold">C</text>
  <text x="270" y="90" text-anchor="middle" font-size="15" font-weight="bold">C</text>
  <text x="345" y="90" text-anchor="middle" font-size="15" font-weight="bold">C</text>
  <line x1="40"  y1="85" x2="90"  y2="85" stroke="#333" stroke-width="2"/>
  <line x1="110" y1="85" x2="175" y2="85" stroke="#333" stroke-width="2"/>
  <line x1="195" y1="85" x2="260" y2="85" stroke="#333" stroke-width="2"/>
  <line x1="280" y1="85" x2="335" y2="85" stroke="#333" stroke-width="2"/>
  <!-- H C1 -->
  <line x1="30" y1="78" x2="30" y2="52" stroke="#333" stroke-width="1.5"/><text x="30" y="45" text-anchor="middle">H</text>
  <line x1="18" y1="85" x2="2"  y2="85" stroke="#333" stroke-width="1.5"/><text x="0" y="89" text-anchor="end">H</text>
  <line x1="30" y1="96" x2="30" y2="120" stroke="#333" stroke-width="1.5"/><text x="30" y="132" text-anchor="middle">H</text>
  <!-- H C2 -->
  <line x1="100" y1="78" x2="100" y2="52" stroke="#333" stroke-width="1.5"/><text x="100" y="45" text-anchor="middle">H</text>
  <line x1="100" y1="96" x2="100" y2="120" stroke="#333" stroke-width="1.5"/><text x="100" y="132" text-anchor="middle">H</text>
  <!-- ramificación C3: CH3 hacia arriba -->
  <line x1="185" y1="78" x2="185" y2="42" stroke="#333" stroke-width="2"/>
  <text x="185" y="34" text-anchor="middle" font-size="15" font-weight="bold">C</text>
  <line x1="173" y1="30" x2="155" y2="16" stroke="#333" stroke-width="1.5"/><text x="151" y="12" font-size="12" text-anchor="middle">H</text>
  <line x1="197" y1="30" x2="215" y2="16" stroke="#333" stroke-width="1.5"/><text x="219" y="12" font-size="12" text-anchor="middle">H</text>
  <line x1="185" y1="24" x2="185" y2="10" stroke="#333" stroke-width="1.5"/><text x="185" y="6" font-size="12" text-anchor="middle">H</text>
  <!-- H C3 hacia abajo -->
  <line x1="185" y1="96" x2="185" y2="120" stroke="#333" stroke-width="1.5"/><text x="185" y="132" text-anchor="middle">H</text>
  <!-- H C4 -->
  <line x1="270" y1="78" x2="270" y2="52" stroke="#333" stroke-width="1.5"/><text x="270" y="45" text-anchor="middle">H</text>
  <line x1="270" y1="96" x2="270" y2="120" stroke="#333" stroke-width="1.5"/><text x="270" y="132" text-anchor="middle">H</text>
  <!-- H C5 -->
  <line x1="345" y1="78" x2="345" y2="52" stroke="#333" stroke-width="1.5"/><text x="345" y="45" text-anchor="middle">H</text>
  <line x1="357" y1="85" x2="375" y2="85" stroke="#333" stroke-width="1.5"/><text x="379" y="89" text-anchor="start">H</text>
  <line x1="345" y1="96" x2="345" y2="120" stroke="#333" stroke-width="1.5"/><text x="345" y="132" text-anchor="middle">H</text>
  <text x="188" y="152" text-anchor="middle" font-size="11" fill="#555">3-metilpentano (C₆H₁₄)</text>
</svg>