<svg width="260" height="230" viewBox="0 0 260 230" xmlns="http://www.w3.org/2000/svg" font-family="Arial" font-size="13">
  <!-- C central -->
  <text x="130" y="115" text-anchor="middle" font-size="15" font-weight="bold">C</text>
  <!-- CH3 arriba -->
  <line x1="130" y1="103" x2="130" y2="68" stroke="#333" stroke-width="2"/>
  <text x="130" y="60" text-anchor="middle" font-size="15" font-weight="bold">C</text>
  <line x1="118" y1="56" x2="100" y2="40" stroke="#333" stroke-width="1.5"/><text x="96"  y="36" font-size="12" text-anchor="middle">H</text>
  <line x1="142" y1="56" x2="160" y2="40" stroke="#333" stroke-width="1.5"/><text x="164" y="36" font-size="12" text-anchor="middle">H</text>
  <line x1="130" y1="50" x2="130" y2="30" stroke="#333" stroke-width="1.5"/><text x="130" y="24" font-size="12" text-anchor="middle">H</text>
  <!-- CH3 abajo -->
  <line x1="130" y1="123" x2="130" y2="160" stroke="#333" stroke-width="2"/>
  <text x="130" y="170" text-anchor="middle" font-size="15" font-weight="bold">C</text>
  <line x1="118" y1="174" x2="100" y2="190" stroke="#333" stroke-width="1.5"/><text x="96"  y="200" font-size="12" text-anchor="middle">H</text>
  <line x1="142" y1="174" x2="160" y2="190" stroke="#333" stroke-width="1.5"/><text x="164" y="200" font-size="12" text-anchor="middle">H</text>
  <line x1="130" y1="180" x2="130" y2="200" stroke="#333" stroke-width="1.5"/><text x="130" y="212" font-size="12" text-anchor="middle">H</text>
  <!-- CH3 izquierda -->
  <line x1="118" y1="112" x2="78" y2="112" stroke="#333" stroke-width="2"/>
  <text x="66"  y="116" text-anchor="middle" font-size="15" font-weight="bold">C</text>
  <line x1="54"  y1="112" x2="28" y2="112" stroke="#333" stroke-width="1.5"/><text x="20"  y="116" font-size="12" text-anchor="middle">H</text>
  <line x1="66"  y1="100" x2="66" y2="78"  stroke="#333" stroke-width="1.5"/><text x="66"  y="72"  font-size="12" text-anchor="middle">H</text>
  <line x1="66"  y1="124" x2="66" y2="146" stroke="#333" stroke-width="1.5"/><text x="66"  y="158" font-size="12" text-anchor="middle">H</text>
  <!-- CH3 derecha -->
  <line x1="142" y1="112" x2="180" y2="112" stroke="#333" stroke-width="2"/>
  <text x="192" y="116" text-anchor="middle" font-size="15" font-weight="bold">C</text>
  <line x1="204" y1="112" x2="232" y2="112" stroke="#333" stroke-width="1.5"/><text x="240" y="116" font-size="12" text-anchor="middle">H</text>
  <line x1="192" y1="100" x2="192" y2="78"  stroke="#333" stroke-width="1.5"/><text x="192" y="72"  font-size="12" text-anchor="middle">H</text>
  <line x1="192" y1="124" x2="192" y2="146" stroke="#333" stroke-width="1.5"/><text x="192" y="158" font-size="12" text-anchor="middle">H</text>
  <text x="130" y="224" text-anchor="middle" font-size="11" fill="#555">2,2-dimetilpropano (C₅H₁₂)</text>
</svg>